<svg xmlns="http://www.w3.org/2000/svg" viewBox="0 0 24.89 32"><defs><style>.cls-1{fill:#fbf5f3;}</style></defs><g id="レイヤー_2" data-name="レイヤー 2"><g id="Layer_1" data-name="Layer 1"><path class="cls-1" d="M10.23,21.17c-.84,4.4-1.86,8.62-4.9,10.83C4.39,25.34,6.7,20.34,7.78,15,6,11.94,8,5.73,11.87,7.26c4.76,1.89-4.12,11.48,1.84,12.68,6.22,1.25,8.77-10.8,4.91-14.72C13-.44,2.38,5.09,3.69,13.19c.32,2,2.37,2.58.82,5.32C.94,17.72-.13,14.9,0,11.15.23,5,5.53.7,10.85.11c6.72-.76,13,2.47,13.9,8.79,1,7.13-3,14.86-10.22,14.31C12.58,23.06,11.76,22.09,10.23,21.17Z"/></g></g></svg>