<svg xmlns="http://www.w3.org/2000/svg" viewBox="0 0 26.66 32"><defs><style>.cls-1{fill-rule:evenodd;}</style></defs><g id="レイヤー_2" data-name="レイヤー 2"><g id="Layer_1" data-name="Layer 1"><path class="cls-1" d="M15.86,5.25A5.41,5.41,0,0,0,16,6.59L8.67,11.82A5.5,5.5,0,0,0,5.4,10.75a5.25,5.25,0,1,0,0,10.5,5.5,5.5,0,0,0,3.27-1.07L16,25.41a5.41,5.41,0,0,0-.18,1.34,5.4,5.4,0,1,0,5.41-5.25,5.5,5.5,0,0,0-2.75.73l-7.77-5.51a5.21,5.21,0,0,0,0-1.44l7.77-5.51a5.5,5.5,0,0,0,2.75.73,5.32,5.32,0,0,0,5.39-5.25,5.4,5.4,0,0,0-10.8,0Z"/></g></g></svg>