<svg class="footer__logo" xmlns="http://www.w3.org/2000/svg" viewBox="0 0 597.59 92.82"><path d="M69.43,91.19Q60.88,69.56,59,64.27H21.51L10.94,91.19H0Q23.15,33.58,36.1,1.89H44l36.73,89.3ZM40.25,14.84,24.65,55.59H55.72Z"/><path d="M107.54,82.76l-1.76,8.43H98.36V1.89h9.69V39l.5.25q6.92-9.68,20.5-9.68,12.82,0,20.63,8.74t7.8,22.58q0,14.08-7.93,23t-20.88,8.93q-14.2,0-20.62-10.18ZM113,44.34q-5.4,6.34-5.41,16.79T113,77.92q5.42,6.48,14.72,6.48a17.74,17.74,0,0,0,14.4-6.67q5.48-6.66,5.47-16.73t-5.47-16.47A17.75,17.75,0,0,0,127.79,38Q118.37,38,113,44.34Z"/><path d="M184,84q-8.86-8.88-8.87-22.71t8.8-22.83q8.81-8.87,22.39-8.86t22.08,8.74Q237,47,237,61.13t-8.55,22.95q-8.55,8.74-22.14,8.74T184,84Zm7-39.43q-5.85,6.54-5.85,16.72T191,77.92a21,21,0,0,0,30.31.06q5.85-6.41,5.85-16.73T221.31,44.4Q215.46,38,206,38A19.26,19.26,0,0,0,191,44.53Z"/><path d="M307.54,66.79q0,11.82-6.48,18.8t-18.8,7q-11.83,0-18.49-6.79t-6.67-19V31.19h9.43V66.28a21.81,21.81,0,0,0,3.78,12.83q3.76,5.42,11.95,5.41,8.55,0,12.26-5.09t3.71-12.89V31.19h9.31Z"/><path d="M367.16,89.81a18.47,18.47,0,0,1-5.6,1.88,30.67,30.67,0,0,1-5.85.76q-17.47,0-17.48-17.36V39.24H328.17v-8h10.94l2.77-17h6v17h16.86v8.05H347.91V71.69c0,4.62.65,7.76,1.95,9.44s3.76,2.51,7.36,2.51a21.88,21.88,0,0,0,9.94-2.39Z"/><path d="M395.21,79.43a7,7,0,0,1,5.28-2.2A7.51,7.51,0,0,1,408,84.77a7.12,7.12,0,0,1-2.2,5.29,7.42,7.42,0,0,1-5.35,2.14,7.31,7.31,0,0,1-7.42-7.43A7.37,7.37,0,0,1,395.21,79.43Z"/><path d="M495.9,76.79a23.44,23.44,0,0,0,8.61-17.17h9.81a31.22,31.22,0,0,1-11.57,24q-11.07,9.24-26.66,9.24-19.24,0-31.7-12.32T431.94,47.67q0-21.37,12.64-34.53T476.21,0Q491.67,0,502,7.92a28.11,28.11,0,0,1,11.31,21H504a20.81,20.81,0,0,0-8.62-13.84Q488,9.56,476.09,9.56a31.89,31.89,0,0,0-23.78,10.31q-9.93,10.32-9.93,26.79,0,16.74,9.56,26.79t24,10.07Q487.92,83.52,495.9,76.79Z"/><path d="M544.58,84q-8.87-8.88-8.87-22.71t8.8-22.83q8.81-8.87,22.39-8.86T589,38.3q8.61,8.75,8.61,22.83T589,84.08q-8.55,8.74-22.14,8.74T544.58,84Zm7-39.43q-5.85,6.54-5.85,16.72t5.85,16.67a21,21,0,0,0,30.31.06q5.85-6.41,5.85-16.73T581.93,44.4Q576.08,38,566.65,38A19.26,19.26,0,0,0,551.62,44.53Z"/></svg>